<svg xmlns="http://www.w3.org/2000/svg" viewBox="0 0 64 64"><title>Artboard-1</title><g id="Send_money" data-name="Send money"><path d="M47.731,59.629A1,1,0,0,0,46.8,59H17.2a1,1,0,0,0-.928.629l-1.2,3a1.021,1.021,0,0,0,.1.93A1,1,0,0,0,16,64H48a1,1,0,0,0,.83-.44,1.021,1.021,0,0,0,.1-.93Z" style="fill:#232328"/><rect x="23" y="54" width="18" height="3" style="fill:#232328"/><path d="M5,51a1,1,0,0,0,1,1H58a1,1,0,0,0,1-1V46H5Zm25-3h4a1,1,0,0,1,0,2H30a1,1,0,0,1,0-2Z" style="fill:#232328"/><path d="M35,31.5A1.5,1.5,0,0,0,33.5,30H33v3h.5A1.5,1.5,0,0,0,35,31.5Z" style="fill:#232328"/><path d="M30.5,28H31V25h-.5a1.5,1.5,0,0,0,0,3Z" style="fill:#232328"/><path d="M58,14H36v3.69a12,12,0,1,1-8,0V14H6a1,1,0,0,0-1,1V44H59V15A1,1,0,0,0,58,14Z" style="fill:#232328"/><path d="M26,8h4V18.432a1.015,1.015,0,0,1-.759.966,10,10,0,1,0,5.524,0A1.024,1.024,0,0,1,34,18.426V8h4a1,1,0,0,0,.707-1.707l-6-6a1,1,0,0,0-1.414,0l-6,6A1,1,0,0,0,26,8Zm5,15V22a1,1,0,0,1,2,0v1h2a1,1,0,0,1,0,2H33v3h.5a3.5,3.5,0,0,1,0,7H33v1a1,1,0,0,1-2,0V35H29a1,1,0,0,1,0-2h2V30h-.5a3.5,3.5,0,0,1,0-7Z" style="fill:#232328"/></g></svg>